<?xml version="1.0" standalone="no"?><!DOCTYPE svg PUBLIC "-//W3C//DTD SVG 1.1//EN" "http://www.w3.org/Graphics/SVG/1.1/DTD/svg11.dtd"><svg t="1789654546250" class="icon" viewBox="0 0 1024 1024" version="1.1" xmlns="http://www.w3.org/2000/svg" p-id="1747" xmlns:xlink="http://www.w3.org/1999/xlink" width="200" height="200"><path d="M489.0624 175.2064a51.2 51.2 0 0 1 45.8752 0l222.1056 111.4112a51.2 51.2 0 0 1 0.4096 91.3408l-222.1056 113.664-5.632 2.56c-11.4176 4.1984-24.0128 4.1984-35.4304 0l-5.632-2.56-222.0544-113.664a51.2 51.2 0 0 1 0.3584-91.3408l222.1056-111.4112z m-199.168 157.184L512 446.1568l222.1056-113.664L512 221.0304 289.8944 332.4416zM869.888 715.1104a51.2 51.2 0 0 1-30.5664 39.4752l-223.4368 95.4368a51.2 51.2 0 0 1-71.2704-47.104h51.2L819.2 707.584V462.4384l-223.3856 112.128h-51.2l0.512-7.168a51.2 51.2 0 0 1 21.504-34.9184l6.144-3.6864 223.488-112.128a51.2 51.2 0 0 1 73.728 38.7584l0.4096 7.0144v245.0944l-0.512 7.5776z m-274.0736 87.808h-51.2v-228.352h51.2v228.352zM153.6 707.584V462.3872a51.2 51.2 0 0 1 74.1376-45.7216l223.4368 112.0768a51.2 51.2 0 0 1 28.2112 45.824v228.352a51.2 51.2 0 0 1-71.2704 47.104l-223.4368-95.488a51.2 51.2 0 0 1-30.5152-39.4752L153.6 707.5328z m51.2 0l223.3856 95.3344v-228.352L204.8 462.4896v245.0944z" fill="#1A1A1A" p-id="1748"></path></svg>